<?xml version="1.0" encoding="iso-8859-1"?>
<!-- Generator: Adobe Illustrator 16.0.0, SVG Export Plug-In . SVG Version: 6.00 Build 0)  -->
<!DOCTYPE svg PUBLIC "-//W3C//DTD SVG 1.1//EN" "http://www.w3.org/Graphics/SVG/1.1/DTD/svg11.dtd">
<svg version="1.1" id="Capa_1" xmlns="http://www.w3.org/2000/svg" xmlns:xlink="http://www.w3.org/1999/xlink" x="0px" y="0px"
	 width="612px" height="612px" viewBox="0 0 612 612" style="enable-background:new 0 0 612 612;" xml:space="preserve">
<g>
	<path d="M383.271,345.687v0.562c0,34.683-23.582,55.837-58.562,60.174v13.952c0,10.334-8.377,18.743-18.711,18.743
		c-10.365,0-18.774-8.409-18.774-18.743v-15.502c-17.756-3.336-35.09-10.256-50.325-21.202c-4.806-3.382-8.188-9.552-8.188-16.3
		c0-11.289,9.002-19.979,20.247-19.979c5.623,0,9.582,1.956,12.401,3.898c14.89,11.008,31.222,17.756,50.372,17.756
		c17.74,0,28.451-7.016,28.451-18.57v-0.562c0-11.008-6.781-16.581-39.725-25.069c-39.631-10.114-65.294-21.108-65.294-60.254
		v-0.579c0-30.472,20.981-51.985,52.048-57.749v-14.688c0-10.334,8.409-18.727,18.774-18.727c10.335,0,18.71,8.393,18.71,18.727
		v14.843c15.502,2.536,29.516,7.766,41.949,15.643c4.793,2.803,9.568,8.737,9.568,17.193c0,11.258-8.988,19.996-20.248,19.996
		c-4.26,0-7.609-1.128-10.977-3.101c-14.344-8.456-27.902-13.248-41.433-13.248c-16.614,0-25.318,7.595-25.318,17.177v0.579
		c0,12.917,8.439,17.146,42.511,25.884C360.754,296.973,383.271,311.333,383.271,345.687z M611.99,270.761v70.461
		c0,21.624-17.521,39.146-39.146,39.146h-47.006c-3.318,9.786-7.312,19.26-11.852,28.419l33.305,33.321
		c15.281,15.282,15.281,40.084,0,55.352l-49.824,49.825c-7.643,7.642-17.664,11.461-27.684,11.461
		c-10.021,0-20.027-3.821-27.684-11.461l-33.305-33.305c-9.16,4.541-18.617,8.549-28.418,11.868v47.006
		c0,21.624-17.523,39.146-39.146,39.146h-70.461c-21.624,0-39.146-17.521-39.146-39.146v-47.022
		c-9.802-3.335-19.259-7.327-28.419-11.868l-33.305,33.305c-7.642,7.642-17.662,11.463-27.683,11.463s-20.027-3.821-27.683-11.463
		l-49.825-49.825c-7.344-7.344-11.463-17.303-11.463-27.683c0-10.382,4.119-20.341,11.463-27.683l33.321-33.321
		c-4.557-9.159-8.533-18.634-11.853-28.419H39.155c-21.624,0-39.146-17.521-39.146-39.146V270.73
		c0-21.624,17.521-39.146,39.146-39.146h47.022c3.319-9.786,7.312-19.243,11.853-28.405L64.704,169.86
		c-15.281-15.281-15.281-40.069,0-55.351l49.825-49.825c15.282-15.282,40.084-15.282,55.351,0l33.322,33.319
		c9.159-4.542,18.617-8.534,28.405-11.869V39.146C231.607,17.521,249.128,0,270.752,0h70.462c21.623,0,39.145,17.521,39.145,39.146
		v47.022c9.787,3.319,19.244,7.312,28.402,11.869l33.307-33.321c15.281-15.282,40.084-15.282,55.35,0l49.826,49.839
		c7.344,7.344,11.463,17.287,11.463,27.683c0,10.382-4.133,20.341-11.463,27.683l-33.305,33.305
		c4.541,9.16,8.533,18.617,11.852,28.405h47.006C594.469,231.615,611.99,249.137,611.99,270.761z M459.98,306.008
		c0-84.915-69.084-153.983-153.983-153.983c-84.898,0-153.967,69.084-153.967,153.983c0,84.899,69.068,153.967,153.967,153.967
		S459.98,390.907,459.98,306.008z"/>
</g>
<g>
</g>
<g>
</g>
<g>
</g>
<g>
</g>
<g>
</g>
<g>
</g>
<g>
</g>
<g>
</g>
<g>
</g>
<g>
</g>
<g>
</g>
<g>
</g>
<g>
</g>
<g>
</g>
<g>
</g>
</svg>
